<svg width="1280" height="360" viewBox="0 0 1280 360" fill="none" xmlns="http://www.w3.org/2000/svg">
<path d="M473.08 220L469.6 202.84H449.8L446.44 220H431.08C434.6 205.36 438.16 192.04 441.76 180.04C445.36 167.96 448.84 156.52 452.2 145.72H468.28C471.8 156.6 475.28 168.16 478.72 180.4C482.24 192.56 485.64 205.76 488.92 220H473.08ZM459.88 160.12C459.08 162.92 458.32 165.6 457.6 168.16C456.96 170.64 456.32 173.12 455.68 175.6C455.12 178 454.56 180.44 454 182.92C453.52 185.4 453.04 187.96 452.56 190.6H467.08C466.6 187.96 466.12 185.4 465.64 182.92C465.16 180.44 464.6 178 463.96 175.6C463.4 173.12 462.76 170.64 462.04 168.16C461.4 165.6 460.68 162.92 459.88 160.12ZM531.4 191.44C531.4 186.16 530.52 182.12 528.76 179.32C527.08 176.52 524.48 175.12 520.96 175.12C519.36 175.12 517.76 175.36 516.16 175.84C514.64 176.24 513.32 176.76 512.2 177.4V208C513.32 208.24 514.48 208.4 515.68 208.48C516.96 208.56 518.04 208.6 518.92 208.6C522.76 208.6 525.8 207.32 528.04 204.76C530.28 202.12 531.4 197.68 531.4 191.44ZM546.4 191.8C546.4 196.28 545.8 200.36 544.6 204.04C543.4 207.64 541.64 210.72 539.32 213.28C537 215.84 534.16 217.84 530.8 219.28C527.44 220.64 523.6 221.32 519.28 221.32C515.44 221.32 511.52 221.04 507.52 220.48C503.52 219.92 500.16 219.2 497.44 218.32V139.24L512.2 136.72V164.92C514.28 163.96 516.28 163.32 518.2 163C520.12 162.6 522.04 162.4 523.96 162.4C527.64 162.4 530.88 163.12 533.68 164.56C536.48 165.92 538.8 167.92 540.64 170.56C542.56 173.12 544 176.2 544.96 179.8C545.92 183.4 546.4 187.4 546.4 191.8ZM577.36 208.84C580.96 208.84 583.72 208.6 585.64 208.12C587.56 207.56 588.52 206.48 588.52 204.88C588.52 203.84 588.2 202.96 587.56 202.24C587 201.52 586.16 200.92 585.04 200.44C584 199.88 582.76 199.36 581.32 198.88C579.96 198.4 578.52 197.92 577 197.44C574.84 196.8 572.64 196.08 570.4 195.28C568.16 194.4 566.12 193.32 564.28 192.04C562.44 190.76 560.92 189.16 559.72 187.24C558.52 185.24 557.92 182.76 557.92 179.8C557.92 177.4 558.36 175.16 559.24 173.08C560.2 170.92 561.64 169.04 563.56 167.44C565.56 165.76 568.08 164.48 571.12 163.6C574.16 162.64 577.8 162.16 582.04 162.16C585.72 162.16 589.12 162.44 592.24 163C595.44 163.56 598.2 164.36 600.52 165.4L598.24 177.88C596.88 177.48 594.76 176.84 591.88 175.96C589 175 585.76 174.52 582.16 174.52C578.4 174.52 575.84 175 574.48 175.96C573.2 176.84 572.56 177.8 572.56 178.84C572.56 179.72 572.84 180.52 573.4 181.24C574.04 181.88 574.84 182.48 575.8 183.04C576.84 183.6 578 184.16 579.28 184.72C580.64 185.2 582.08 185.68 583.6 186.16C585.76 186.88 588 187.68 590.32 188.56C592.64 189.44 594.72 190.56 596.56 191.92C598.48 193.2 600.04 194.88 601.24 196.96C602.44 198.96 603.04 201.44 603.04 204.4C603.04 206.72 602.6 208.92 601.72 211C600.84 213.08 599.36 214.88 597.28 216.4C595.28 217.92 592.64 219.12 589.36 220C586.08 220.88 582.04 221.32 577.24 221.32C572.36 221.32 568.2 220.76 564.76 219.64C561.32 218.52 558.56 217.52 556.48 216.64L558.76 204.28C561.56 205.4 564.52 206.44 567.64 207.4C570.84 208.36 574.08 208.84 577.36 208.84ZM666.64 191.68C666.64 196.16 666 200.24 664.72 203.92C663.44 207.52 661.64 210.64 659.32 213.28C657 215.92 654.2 217.96 650.92 219.4C647.72 220.84 644.12 221.56 640.12 221.56C636.12 221.56 632.48 220.84 629.2 219.4C626 217.96 623.2 215.92 620.8 213.28C618.48 210.64 616.68 207.52 615.4 203.92C614.12 200.24 613.48 196.16 613.48 191.68C613.48 187.28 614.12 183.28 615.4 179.68C616.76 176 618.6 172.88 620.92 170.32C623.32 167.68 626.16 165.68 629.44 164.32C632.72 162.88 636.28 162.16 640.12 162.16C644.04 162.16 647.6 162.88 650.8 164.32C654.08 165.68 656.88 167.68 659.2 170.32C661.6 172.88 663.44 176 664.72 179.68C666 183.28 666.64 187.28 666.64 191.68ZM628.48 191.8C628.48 196.84 629.36 200.92 631.12 204.04C632.96 207.16 635.88 208.72 639.88 208.72C643.72 208.72 646.6 207.16 648.52 204.04C650.52 200.92 651.52 196.84 651.52 191.8C651.52 186.76 650.6 182.72 648.76 179.68C647 176.56 644.12 175 640.12 175C636.28 175 633.36 176.56 631.36 179.68C629.44 182.72 628.48 186.76 628.48 191.8ZM722.44 178.6C721.48 178.36 720.32 178.12 718.96 177.88C717.68 177.64 716.36 177.44 715 177.28C713.64 177.04 712.32 176.88 711.04 176.8C709.76 176.72 708.68 176.68 707.8 176.68C705.72 176.68 703.68 176.8 701.68 177.04C699.68 177.2 697.64 177.56 695.56 178.12V220H680.68V167.32C684.6 165.88 688.6 164.72 692.68 163.84C696.84 162.96 701.68 162.52 707.2 162.52C708 162.52 709.12 162.56 710.56 162.64C712.08 162.72 713.68 162.88 715.36 163.12C717.04 163.28 718.72 163.52 720.4 163.84C722.16 164.08 723.72 164.44 725.08 164.92L722.44 178.6ZM771.4 191.44C771.4 186.16 770.52 182.12 768.76 179.32C767.08 176.52 764.48 175.12 760.96 175.12C759.36 175.12 757.76 175.36 756.16 175.84C754.64 176.24 753.32 176.76 752.2 177.4V208C753.32 208.24 754.48 208.4 755.68 208.48C756.96 208.56 758.04 208.6 758.92 208.6C762.76 208.6 765.8 207.32 768.04 204.76C770.28 202.12 771.4 197.68 771.4 191.44ZM786.4 191.8C786.4 196.28 785.8 200.36 784.6 204.04C783.4 207.64 781.64 210.72 779.32 213.28C777 215.84 774.16 217.84 770.8 219.28C767.44 220.64 763.6 221.32 759.28 221.32C755.44 221.32 751.52 221.04 747.52 220.48C743.52 219.92 740.16 219.2 737.44 218.32V139.24L752.2 136.72V164.92C754.28 163.96 756.28 163.32 758.2 163C760.12 162.6 762.04 162.4 763.96 162.4C767.64 162.4 770.88 163.12 773.68 164.56C776.48 165.92 778.8 167.92 780.64 170.56C782.56 173.12 784 176.2 784.96 179.8C785.92 183.4 786.4 187.4 786.4 191.8ZM830.8 210.52C830.8 214.04 829.72 216.72 827.56 218.56C825.4 220.4 822.92 221.32 820.12 221.32C818.68 221.32 817.32 221.08 816.04 220.6C814.76 220.12 813.6 219.44 812.56 218.56C811.6 217.6 810.8 216.48 810.16 215.2C809.6 213.84 809.32 212.28 809.32 210.52C809.32 208.84 809.6 207.36 810.16 206.08C810.8 204.72 811.6 203.6 812.56 202.72C813.6 201.84 814.76 201.16 816.04 200.68C817.32 200.2 818.68 199.96 820.12 199.96C822.92 199.96 825.4 200.88 827.56 202.72C829.72 204.56 830.8 207.16 830.8 210.52Z" fill="black"/>
</svg>
